<?xml version="1.0" standalone="no"?>
<!DOCTYPE svg PUBLIC "-//W3C//DTD SVG 20010904//EN"
 "http://www.w3.org/TR/2001/REC-SVG-20010904/DTD/svg10.dtd">
<svg version="1.0" xmlns="http://www.w3.org/2000/svg"
 width="512.000000pt" height="512.000000pt" viewBox="0 0 512.000000 512.000000"
 preserveAspectRatio="xMidYMid meet">
<metadata>
Created by potrace 1.11, written by Peter Selinger 2001-2013
</metadata>
<g transform="translate(0.000000,512.000000) scale(0.100000,-0.100000)"
fill="#000000" stroke="none">
<path d="M2246 5054 c-558 -74 -1035 -302 -1425 -679 -371 -358 -621 -814
-720 -1311 -38 -190 -51 -317 -51 -513 0 -672 270 -1315 751 -1788 136 -135
214 -198 372 -303 288 -192 613 -320 968 -381 180 -31 589 -34 767 -6 702 113
1289 484 1694 1072 195 283 331 624 399 1000 27 151 38 527 19 687 -37 327
-150 682 -301 951 -115 205 -245 376 -412 546 -379 384 -834 619 -1377 712
-165 28 -523 35 -684 13z m540 -45 c557 -54 1087 -303 1479 -694 382 -380 625
-859 710 -1400 23 -144 30 -435 16 -591 -55 -586 -303 -1117 -716 -1529 -365
-366 -816 -598 -1330 -686 -173 -30 -504 -37 -685 -15 -571 70 -1082 326
-1478 741 -346 363 -567 805 -653 1310 -26 153 -37 494 -20 657 50 478 241
943 541 1314 309 381 747 671 1224 810 282 82 616 112 912 83z"/>
<path d="M1603 4708 c-118 -43 -209 -131 -255 -245 -18 -47 -23 -77 -23 -163
0 -98 2 -110 32 -173 43 -89 119 -169 202 -210 61 -30 72 -32 171 -32 95 0
110 3 163 28 80 40 156 117 197 201 31 61 35 81 38 167 6 151 -31 244 -138
343 -106 98 -259 131 -387 84z"/>
<path d="M1726 3739 c-170 -15 -313 -32 -318 -37 -7 -7 4 -82 30 -213 70 -351
117 -688 152 -1093 18 -208 40 -549 40 -613 0 -28 -16 -28 194 -6 l59 6 -6
176 c-6 157 -39 558 -52 636 -4 25 -3 27 5 10 6 -11 98 -238 204 -505 l195
-485 -306 -529 c-168 -290 -307 -535 -309 -545 -3 -11 25 -33 100 -78 57 -35
108 -63 112 -63 5 0 126 203 269 450 192 333 262 446 267 433 4 -10 37 -90 74
-178 84 -205 189 -419 252 -517 157 -240 258 -254 448 -64 205 205 337 514
444 1044 55 274 131 836 116 861 -2 3 -58 2 -123 -4 l-118 -10 -3 -35 c-27
-356 -95 -707 -162 -840 -32 -63 -99 -130 -131 -130 -34 0 -74 27 -101 68 -42
62 -130 244 -203 415 l-66 157 432 748 c237 411 436 753 442 760 12 15 23 6
-107 87 -96 59 -111 65 -121 51 -7 -8 -182 -310 -391 -671 -267 -462 -381
-650 -387 -640 -4 8 -129 317 -278 687 -149 370 -273 679 -276 686 -6 15 -5
15 -377 -19z"/>
</g>
</svg>
